<?xml version="1.0" encoding="UTF-8" standalone="no"?>
<!DOCTYPE svg PUBLIC "-//W3C//DTD SVG 1.1//EN"
 "http://www.w3.org/Graphics/SVG/1.1/DTD/svg11.dtd">
<!-- Generated by graphviz version 2.44.1 (20200629.0846)
 -->
<!-- Title: G Pages: 1 -->
<svg width="443pt" height="331pt"
 viewBox="0.00 0.00 443.00 331.00" xmlns="http://www.w3.org/2000/svg" xmlns:xlink="http://www.w3.org/1999/xlink">
<g id="graph0" class="graph" transform="scale(1 1) rotate(0) translate(4 327)">
<title>G</title>
<polygon fill="white" stroke="transparent" points="-4,4 -4,-327 439,-327 439,4 -4,4"/>
<!-- leaf140529612873584 -->
<g id="node1" class="node">
<title>leaf140529612873584</title>
<polygon fill="none" stroke="black" stroke-width="0" points="7,-323 0,-323 0,-287 7,-287 7,-323"/>
<text text-anchor="start" x="0" y="-301.9" font-family="Consolas" font-size="12.00" fill="#444443">b</text>
</g>
<!-- leaf140529612872336 -->
<g id="node2" class="node">
<title>leaf140529612872336</title>
<polygon fill="none" stroke="black" stroke-width="0" points="26.5,-323 8.5,-323 8.5,-287 26.5,-287 26.5,-323"/>
<text text-anchor="start" x="14" y="-301.9" font-family="Consolas" font-size="12.00" fill="#444443">=</text>
</g>
<!-- leaf140529612873584&#45;&gt;leaf140529612872336 -->
<!-- leaf140529612870608 -->
<g id="node3" class="node">
<title>leaf140529612870608</title>
<polygon fill="none" stroke="black" stroke-width="0" points="35,-323 28,-323 28,-287 35,-287 35,-323"/>
<text text-anchor="start" x="28" y="-301.9" font-family="Consolas" font-size="12.00" fill="#444443">W</text>
</g>
<!-- leaf140529612872336&#45;&gt;leaf140529612870608 -->
<!-- leaf140529612870800 -->
<g id="node4" class="node">
<title>leaf140529612870800</title>
<polygon fill="none" stroke="black" stroke-width="0" points="50.5,-323 36.5,-323 36.5,-287 50.5,-287 50.5,-323"/>
<text text-anchor="start" x="40" y="-301.9" font-family="Consolas" font-size="12.00" fill="#444443">@</text>
</g>
<!-- leaf140529612870608&#45;&gt;leaf140529612870800 -->
<!-- leaf140529612871664 -->
<g id="node5" class="node">
<title>leaf140529612871664</title>
<polygon fill="none" stroke="black" stroke-width="0" points="59,-323 52,-323 52,-287 59,-287 59,-323"/>
<text text-anchor="start" x="52" y="-301.9" font-family="Consolas" font-size="12.00" fill="#444443">b</text>
</g>
<!-- leaf140529612870800&#45;&gt;leaf140529612871664 -->
<!-- leaf140529612873440 -->
<g id="node6" class="node">
<title>leaf140529612873440</title>
<polygon fill="none" stroke="black" stroke-width="0" points="89,-323 60,-323 60,-287 89,-287 89,-323"/>
<text text-anchor="start" x="71" y="-301.9" font-family="Consolas" font-size="12.00" fill="#444443">+</text>
</g>
<!-- leaf140529612871664&#45;&gt;leaf140529612873440 -->
<!-- leaf140529612871472 -->
<g id="node7" class="node">
<title>leaf140529612871472</title>
<polygon fill="none" stroke="black" stroke-width="0" points="97,-323 90,-323 90,-287 97,-287 97,-323"/>
<text text-anchor="start" x="90" y="-301.9" font-family="Consolas" font-size="12.00" fill="#444443">(</text>
</g>
<!-- leaf140529612873440&#45;&gt;leaf140529612871472 -->
<!-- leaf140529612872720 -->
<g id="node8" class="node">
<title>leaf140529612872720</title>
<polygon fill="none" stroke="black" stroke-width="0" points="105,-323 98,-323 98,-287 105,-287 105,-323"/>
<text text-anchor="start" x="98" y="-301.9" font-family="Consolas" font-size="12.00" fill="#444443">h</text>
</g>
<!-- leaf140529612871472&#45;&gt;leaf140529612872720 -->
<!-- leaf140529612870704 -->
<g id="node9" class="node">
<title>leaf140529612870704</title>
<polygon fill="none" stroke="black" stroke-width="0" points="135,-323 106,-323 106,-287 135,-287 135,-323"/>
<text text-anchor="start" x="117" y="-301.9" font-family="Consolas" font-size="12.00" fill="#444443">+</text>
</g>
<!-- leaf140529612872720&#45;&gt;leaf140529612870704 -->
<!-- leaf140529612869792 -->
<g id="node10" class="node">
<title>leaf140529612869792</title>
<polygon fill="none" stroke="black" stroke-width="0" points="143,-323 136,-323 136,-287 143,-287 143,-323"/>
<text text-anchor="start" x="136" y="-301.9" font-family="Consolas" font-size="12.00" fill="#444443">3</text>
</g>
<!-- leaf140529612870704&#45;&gt;leaf140529612869792 -->
<!-- leaf140529612872480 -->
<g id="node11" class="node">
<title>leaf140529612872480</title>
<polygon fill="none" stroke="black" stroke-width="0" points="151,-323 144,-323 144,-287 151,-287 151,-323"/>
<text text-anchor="start" x="144" y="-301.9" font-family="Consolas" font-size="12.00" fill="#444443">)</text>
</g>
<!-- leaf140529612869792&#45;&gt;leaf140529612872480 -->
<!-- leaf140529612869696 -->
<g id="node12" class="node">
<title>leaf140529612869696</title>
<polygon fill="none" stroke="black" stroke-width="0" points="159,-323 152,-323 152,-287 159,-287 159,-323"/>
<text text-anchor="start" x="152" y="-301.9" font-family="Consolas" font-size="12.00" fill="#444443">.</text>
</g>
<!-- leaf140529612872480&#45;&gt;leaf140529612869696 -->
<!-- leaf140529615243536 -->
<g id="node13" class="node">
<title>leaf140529615243536</title>
<polygon fill="none" stroke="black" stroke-width="0" points="181,-323 160,-323 160,-287 181,-287 181,-323"/>
<text text-anchor="start" x="160" y="-301.9" font-family="Consolas" font-size="12.00" fill="#444443">dot</text>
</g>
<!-- leaf140529612869696&#45;&gt;leaf140529615243536 -->
<!-- leaf140529615243728 -->
<g id="node14" class="node">
<title>leaf140529615243728</title>
<polygon fill="none" stroke="black" stroke-width="0" points="189,-323 182,-323 182,-287 189,-287 189,-323"/>
<text text-anchor="start" x="182" y="-301.9" font-family="Consolas" font-size="12.00" fill="#444443">(</text>
</g>
<!-- leaf140529615243536&#45;&gt;leaf140529615243728 -->
<!-- leaf140529615243440 -->
<g id="node15" class="node">
<title>leaf140529615243440</title>
<polygon fill="none" stroke="black" stroke-width="0" points="197,-323 190,-323 190,-287 197,-287 197,-323"/>
<text text-anchor="start" x="190" y="-301.9" font-family="Consolas" font-size="12.00" fill="#444443">h</text>
</g>
<!-- leaf140529615243728&#45;&gt;leaf140529615243440 -->
<!-- leaf140529615244112 -->
<g id="node16" class="node">
<title>leaf140529615244112</title>
<polygon fill="none" stroke="black" stroke-width="0" points="205,-323 198,-323 198,-287 205,-287 205,-323"/>
<text text-anchor="start" x="198" y="-301.9" font-family="Consolas" font-size="12.00" fill="#444443">)</text>
</g>
<!-- leaf140529615243440&#45;&gt;leaf140529615244112 -->
<!-- leaf140529615244544 -->
<g id="node17" class="node">
<title>leaf140529615244544</title>
<polygon fill="none" stroke="black" stroke-width="0" points="235,-323 206,-323 206,-287 235,-287 235,-323"/>
<text text-anchor="start" x="217" y="-301.9" font-family="Consolas" font-size="12.00" fill="#444443">+</text>
</g>
<!-- leaf140529615244112&#45;&gt;leaf140529615244544 -->
<!-- leaf140529615244016 -->
<g id="node18" class="node">
<title>leaf140529615244016</title>
<polygon fill="none" stroke="black" stroke-width="0" points="270.5,-323 236.5,-323 236.5,-287 270.5,-287 270.5,-323"/>
<text text-anchor="start" x="236.5" y="-301.9" font-family="Consolas" font-size="12.00" fill="#444443">torch</text>
</g>
<!-- leaf140529615244544&#45;&gt;leaf140529615244016 -->
<!-- leaf140529615244304 -->
<g id="node19" class="node">
<title>leaf140529615244304</title>
<polygon fill="none" stroke="black" stroke-width="0" points="279,-323 272,-323 272,-287 279,-287 279,-323"/>
<text text-anchor="start" x="272" y="-301.9" font-family="Consolas" font-size="12.00" fill="#444443">.</text>
</g>
<!-- leaf140529615244016&#45;&gt;leaf140529615244304 -->
<!-- leaf140529615244352 -->
<g id="node20" class="node">
<title>leaf140529615244352</title>
<polygon fill="none" stroke="black" stroke-width="0" points="301,-323 280,-323 280,-287 301,-287 301,-323"/>
<text text-anchor="start" x="280" y="-301.9" font-family="Consolas" font-size="12.00" fill="#444443">abs</text>
</g>
<!-- leaf140529615244304&#45;&gt;leaf140529615244352 -->
<!-- leaf140529615244160 -->
<g id="node21" class="node">
<title>leaf140529615244160</title>
<polygon fill="none" stroke="black" stroke-width="0" points="309,-323 302,-323 302,-287 309,-287 309,-323"/>
<text text-anchor="start" x="302" y="-301.9" font-family="Consolas" font-size="12.00" fill="#444443">(</text>
</g>
<!-- leaf140529615244352&#45;&gt;leaf140529615244160 -->
<!-- leaf140529615243680 -->
<g id="node22" class="node">
<title>leaf140529615243680</title>
<polygon fill="none" stroke="black" stroke-width="0" points="344.5,-323 310.5,-323 310.5,-287 344.5,-287 344.5,-323"/>
<text text-anchor="start" x="310.5" y="-301.9" font-family="Consolas" font-size="12.00" fill="#444443">torch</text>
</g>
<!-- leaf140529615244160&#45;&gt;leaf140529615243680 -->
<!-- leaf140529613484096 -->
<g id="node23" class="node">
<title>leaf140529613484096</title>
<polygon fill="none" stroke="black" stroke-width="0" points="353,-323 346,-323 346,-287 353,-287 353,-323"/>
<text text-anchor="start" x="346" y="-301.9" font-family="Consolas" font-size="12.00" fill="#444443">.</text>
</g>
<!-- leaf140529615243680&#45;&gt;leaf140529613484096 -->
<!-- leaf140529613484144 -->
<g id="node24" class="node">
<title>leaf140529613484144</title>
<polygon fill="none" stroke="black" stroke-width="0" points="395,-323 354,-323 354,-287 395,-287 395,-323"/>
<text text-anchor="start" x="354" y="-301.9" font-family="Consolas" font-size="12.00" fill="#444443">tensor</text>
</g>
<!-- leaf140529613484096&#45;&gt;leaf140529613484144 -->
<!-- leaf140529613484192 -->
<g id="node25" class="node">
<title>leaf140529613484192</title>
<polygon fill="none" stroke="black" stroke-width="0" points="403,-323 396,-323 396,-287 403,-287 403,-323"/>
<text text-anchor="start" x="396" y="-301.9" font-family="Consolas" font-size="12.00" fill="#444443">(</text>
</g>
<!-- leaf140529613484144&#45;&gt;leaf140529613484192 -->
<!-- leaf140529613484240 -->
<g id="node26" class="node">
<title>leaf140529613484240</title>
<polygon fill="none" stroke="black" stroke-width="0" points="418.5,-323 404.5,-323 404.5,-287 418.5,-287 418.5,-323"/>
<text text-anchor="start" x="404.5" y="-301.9" font-family="Consolas" font-size="12.00" fill="#444443">34</text>
</g>
<!-- leaf140529613484192&#45;&gt;leaf140529613484240 -->
<!-- leaf140529613484288 -->
<g id="node27" class="node">
<title>leaf140529613484288</title>
<polygon fill="none" stroke="black" stroke-width="0" points="427,-323 420,-323 420,-287 427,-287 427,-323"/>
<text text-anchor="start" x="420" y="-301.9" font-family="Consolas" font-size="12.00" fill="#444443">)</text>
</g>
<!-- leaf140529613484240&#45;&gt;leaf140529613484288 -->
<!-- leaf140529613484336 -->
<g id="node28" class="node">
<title>leaf140529613484336</title>
<polygon fill="none" stroke="black" stroke-width="0" points="435,-323 428,-323 428,-287 435,-287 435,-323"/>
<text text-anchor="start" x="428" y="-301.9" font-family="Consolas" font-size="12.00" fill="#444443">)</text>
</g>
<!-- leaf140529613484288&#45;&gt;leaf140529613484336 -->
<!-- node140529612873152 -->
<g id="node29" class="node">
<title>node140529612873152</title>
<polygon fill="#cfe2d4" stroke="black" stroke-width="0" points="65.5,-265 45.5,-265 45.5,-244 65.5,-244 65.5,-265"/>
<text text-anchor="start" x="52" y="-256.4" font-family="Consolas" font-size="12.00" fill="#444443">@</text>
<text text-anchor="start" x="45.5" y="-246.8" font-family="Arial" font-size="9.00" fill="#444443">2kx1</text>
</g>
<!-- node140529612873152&#45;&gt;leaf140529612870608 -->
<g id="edge28" class="edge">
<title>node140529612873152&#45;&gt;leaf140529612870608</title>
<path fill="none" stroke="#6b6b6b" stroke-width="0.5" d="M48.51,-267.74C45.31,-273.51 41.57,-280.53 38.5,-287 37.3,-289.54 36.09,-292.34 35.03,-294.92"/>
<polygon fill="#6b6b6b" stroke="#6b6b6b" stroke-width="0.5" points="49.48,-268.15 50.03,-265.02 47.65,-267.13 49.48,-268.15"/>
</g>
<!-- node140529612873152&#45;&gt;leaf140529612871664 -->
<g id="edge29" class="edge">
<title>node140529612873152&#45;&gt;leaf140529612871664</title>
<path fill="none" stroke="#6b6b6b" stroke-width="0.5" d="M55.5,-268.35C55.5,-274.05 55.5,-280.83 55.5,-286.93"/>
<polygon fill="#6b6b6b" stroke="#6b6b6b" stroke-width="0.5" points="56.55,-268.31 55.5,-265.31 54.45,-268.31 56.55,-268.31"/>
</g>
<!-- node140529613484432 -->
<g id="node30" class="node">
<title>node140529613484432</title>
<polygon fill="#fefecd" stroke="black" stroke-width="0" points="148.5,-265 130.5,-265 130.5,-244 148.5,-244 148.5,-265"/>
<text text-anchor="start" x="136" y="-256.4" font-family="Consolas" font-size="12.00" fill="#444443">+</text>
<text text-anchor="start" x="133" y="-246.8" font-family="Arial" font-size="9.00" fill="#444443">1m</text>
</g>
<!-- node140529613484432&#45;&gt;leaf140529612872720 -->
<g id="edge30" class="edge">
<title>node140529613484432&#45;&gt;leaf140529612872720</title>
<path fill="none" stroke="#6b6b6b" stroke-width="0.5" d="M128.1,-265.07C121.7,-270.9 113.93,-278.79 108.5,-287 107.16,-289.02 106,-291.34 105.03,-293.61"/>
<polygon fill="#6b6b6b" stroke="#6b6b6b" stroke-width="0.5" points="128.86,-265.8 130.39,-263.02 127.45,-264.24 128.86,-265.8"/>
</g>
<!-- node140529613484432&#45;&gt;leaf140529612869792 -->
<g id="edge31" class="edge">
<title>node140529613484432&#45;&gt;leaf140529612869792</title>
<path fill="none" stroke="#6b6b6b" stroke-width="0.5" d="M139.5,-268.35C139.5,-274.05 139.5,-280.83 139.5,-286.93"/>
<polygon fill="#6b6b6b" stroke="#6b6b6b" stroke-width="0.5" points="140.55,-268.31 139.5,-265.31 138.45,-268.31 140.55,-268.31"/>
</g>
<!-- node140529613484528 -->
<g id="node31" class="node">
<title>node140529613484528</title>
<polygon fill="#fefecd" stroke="black" stroke-width="0" points="153.5,-222 135.5,-222 135.5,-201 153.5,-201 153.5,-222"/>
<text text-anchor="start" x="137.5" y="-213.4" font-family="Consolas" font-size="12.00" fill="#444443">()</text>
<text text-anchor="start" x="138" y="-203.8" font-family="Arial" font-size="9.00" fill="#444443">1m</text>
</g>
<!-- node140529613484528&#45;&gt;node140529613484432 -->
<g id="edge32" class="edge">
<title>node140529613484528&#45;&gt;node140529613484432</title>
<path fill="none" stroke="#6b6b6b" stroke-width="0.5" d="M142.95,-225.21C142.22,-231.19 141.37,-238.21 140.69,-243.76"/>
<polygon fill="#6b6b6b" stroke="#6b6b6b" stroke-width="0.5" points="144.02,-225.11 143.34,-222.01 141.93,-224.86 144.02,-225.11"/>
</g>
<!-- node140529613484672 -->
<g id="node32" class="node">
<title>node140529613484672</title>
<polygon fill="none" stroke="black" stroke-width="0" points="163.5,-179 145.5,-179 145.5,-165 163.5,-165 163.5,-179"/>
<text text-anchor="start" x="151" y="-168.9" font-family="Consolas" font-size="12.00" fill="#444443">.</text>
</g>
<!-- node140529613484672&#45;&gt;leaf140529615243536 -->
<g id="edge34" class="edge">
<title>node140529613484672&#45;&gt;leaf140529615243536</title>
<path fill="none" stroke="#6b6b6b" stroke-width="0.5" d="M155.67,-182.56C158.35,-204.53 164.99,-258.88 168.4,-286.82"/>
<polygon fill="#6b6b6b" stroke="#6b6b6b" stroke-width="0.5" points="156.68,-182.17 155.27,-179.32 154.59,-182.42 156.68,-182.17"/>
</g>
<!-- node140529613484672&#45;&gt;node140529613484528 -->
<g id="edge33" class="edge">
<title>node140529613484672&#45;&gt;node140529613484528</title>
<path fill="none" stroke="#6b6b6b" stroke-width="0.5" d="M152.06,-182.17C150.54,-187.86 148.59,-195.15 147.05,-200.92"/>
<polygon fill="#6b6b6b" stroke="#6b6b6b" stroke-width="0.5" points="153.09,-182.36 152.85,-179.19 151.06,-181.82 153.09,-182.36"/>
</g>
<!-- node140529613484720 -->
<g id="node33" class="node">
<title>node140529613484720</title>
<polygon fill="none" stroke="black" stroke-width="0" points="171.5,-143 137.5,-143 137.5,-129 171.5,-129 171.5,-143"/>
<text text-anchor="start" x="137.5" y="-132.9" font-family="Consolas" font-size="12.00" fill="#444443">dot()</text>
</g>
<!-- node140529613484720&#45;&gt;leaf140529615243440 -->
<g id="edge36" class="edge">
<title>node140529613484720&#45;&gt;leaf140529615243440</title>
<path fill="none" stroke="#6b6b6b" stroke-width="0.5" d="M157.82,-146.54C159.63,-151.92 161.84,-158.79 163.5,-165 175.13,-208.4 185.39,-260.35 190.34,-286.75"/>
<polygon fill="#6b6b6b" stroke="#6b6b6b" stroke-width="0.5" points="158.71,-145.9 156.75,-143.4 156.73,-146.58 158.71,-145.9"/>
</g>
<!-- node140529613484720&#45;&gt;node140529613484672 -->
<g id="edge35" class="edge">
<title>node140529613484720&#45;&gt;node140529613484672</title>
<path fill="none" stroke="#6b6b6b" stroke-width="0.5" d="M154.5,-146.32C154.5,-152.2 154.5,-159.64 154.5,-164.8"/>
<polygon fill="#6b6b6b" stroke="#6b6b6b" stroke-width="0.5" points="155.55,-146.24 154.5,-143.24 153.45,-146.24 155.55,-146.24"/>
</g>
<!-- node140529613484816 -->
<g id="node34" class="node">
<title>node140529613484816</title>
<polygon fill="#cfe2d4" stroke="black" stroke-width="0" points="114.5,-107 94.5,-107 94.5,-86 114.5,-86 114.5,-107"/>
<text text-anchor="start" x="101" y="-98.4" font-family="Consolas" font-size="12.00" fill="#444443">+</text>
<text text-anchor="start" x="94.5" y="-88.8" font-family="Arial" font-size="9.00" fill="#444443">2kx1</text>
</g>
<!-- node140529613484816&#45;&gt;node140529612873152 -->
<g id="edge37" class="edge">
<title>node140529613484816&#45;&gt;node140529612873152</title>
<path fill="none" stroke="#6b6b6b" stroke-width="0.5" d="M100.45,-110.4C90.88,-140.87 67.05,-216.72 58.56,-243.75"/>
<polygon fill="#6b6b6b" stroke="#6b6b6b" stroke-width="0.5" points="101.54,-110.44 101.43,-107.26 99.53,-109.81 101.54,-110.44"/>
</g>
<!-- node140529613484816&#45;&gt;node140529613484720 -->
<g id="edge38" class="edge">
<title>node140529613484816&#45;&gt;node140529613484720</title>
<path fill="none" stroke="#6b6b6b" stroke-width="0.5" d="M117.36,-107.14C126.51,-114.01 138.53,-123.02 146.38,-128.91"/>
<polygon fill="#6b6b6b" stroke="#6b6b6b" stroke-width="0.5" points="117.65,-106.05 114.62,-105.09 116.39,-107.73 117.65,-106.05"/>
</g>
<!-- node140529613484912 -->
<g id="node35" class="node">
<title>node140529613484912</title>
<polygon fill="none" stroke="black" stroke-width="0" points="280.5,-261.5 262.5,-261.5 262.5,-247.5 280.5,-247.5 280.5,-261.5"/>
<text text-anchor="start" x="268" y="-251.4" font-family="Consolas" font-size="12.00" fill="#444443">.</text>
</g>
<!-- node140529613484912&#45;&gt;leaf140529615244016 -->
<g id="edge39" class="edge">
<title>node140529613484912&#45;&gt;leaf140529615244016</title>
<path fill="none" stroke="#6b6b6b" stroke-width="0.5" d="M268.09,-264.68C265.8,-270.86 262.71,-279.19 259.96,-286.59"/>
<polygon fill="#6b6b6b" stroke="#6b6b6b" stroke-width="0.5" points="269.09,-265.02 269.15,-261.84 267.12,-264.29 269.09,-265.02"/>
</g>
<!-- node140529613484912&#45;&gt;leaf140529615244352 -->
<g id="edge40" class="edge">
<title>node140529613484912&#45;&gt;leaf140529615244352</title>
<path fill="none" stroke="#6b6b6b" stroke-width="0.5" d="M275.1,-264.68C277.52,-270.86 280.78,-279.19 283.68,-286.59"/>
<polygon fill="#6b6b6b" stroke="#6b6b6b" stroke-width="0.5" points="276.06,-264.25 273.98,-261.84 274.1,-265.02 276.06,-264.25"/>
</g>
<!-- node140529613485056 -->
<g id="node36" class="node">
<title>node140529613485056</title>
<polygon fill="none" stroke="black" stroke-width="0" points="354.5,-261.5 336.5,-261.5 336.5,-247.5 354.5,-247.5 354.5,-261.5"/>
<text text-anchor="start" x="342" y="-251.4" font-family="Consolas" font-size="12.00" fill="#444443">.</text>
</g>
<!-- node140529613485056&#45;&gt;leaf140529615243680 -->
<g id="edge41" class="edge">
<title>node140529613485056&#45;&gt;leaf140529615243680</title>
<path fill="none" stroke="#6b6b6b" stroke-width="0.5" d="M342.09,-264.68C339.8,-270.86 336.71,-279.19 333.96,-286.59"/>
<polygon fill="#6b6b6b" stroke="#6b6b6b" stroke-width="0.5" points="343.09,-265.02 343.15,-261.84 341.12,-264.29 343.09,-265.02"/>
</g>
<!-- node140529613485056&#45;&gt;leaf140529613484144 -->
<g id="edge42" class="edge">
<title>node140529613485056&#45;&gt;leaf140529613484144</title>
<path fill="none" stroke="#6b6b6b" stroke-width="0.5" d="M350.99,-264.68C354.68,-270.86 359.66,-279.19 364.09,-286.59"/>
<polygon fill="#6b6b6b" stroke="#6b6b6b" stroke-width="0.5" points="351.73,-263.88 349.29,-261.84 349.93,-264.95 351.73,-263.88"/>
</g>
<!-- node140529613485152 -->
<g id="node37" class="node">
<title>node140529613485152</title>
<polygon fill="none" stroke="black" stroke-width="0" points="373,-218.5 318,-218.5 318,-204.5 373,-204.5 373,-218.5"/>
<text text-anchor="start" x="318" y="-208.4" font-family="Consolas" font-size="12.00" fill="#444443">tensor()</text>
</g>
<!-- node140529613485152&#45;&gt;leaf140529613484240 -->
<g id="edge44" class="edge">
<title>node140529613485152&#45;&gt;leaf140529613484240</title>
<path fill="none" stroke="#6b6b6b" stroke-width="0.5" d="M352.15,-221.15C362.68,-234.9 383.7,-262.7 400.5,-287 401.78,-288.85 403.11,-290.84 404.38,-292.78"/>
<polygon fill="#6b6b6b" stroke="#6b6b6b" stroke-width="0.5" points="352.85,-220.33 350.19,-218.59 351.18,-221.61 352.85,-220.33"/>
</g>
<!-- node140529613485152&#45;&gt;node140529613485056 -->
<g id="edge43" class="edge">
<title>node140529613485152&#45;&gt;node140529613485056</title>
<path fill="none" stroke="#6b6b6b" stroke-width="0.5" d="M345.5,-221.7C345.5,-229.55 345.5,-240.63 345.5,-247.43"/>
<polygon fill="#6b6b6b" stroke="#6b6b6b" stroke-width="0.5" points="346.55,-221.55 345.5,-218.55 344.45,-221.55 346.55,-221.55"/>
</g>
<!-- node140529613485200 -->
<g id="node38" class="node">
<title>node140529613485200</title>
<polygon fill="none" stroke="black" stroke-width="0" points="288.5,-179 254.5,-179 254.5,-165 288.5,-165 288.5,-179"/>
<text text-anchor="start" x="254.5" y="-168.9" font-family="Consolas" font-size="12.00" fill="#444443">abs()</text>
</g>
<!-- node140529613485200&#45;&gt;node140529613484912 -->
<g id="edge45" class="edge">
<title>node140529613485200&#45;&gt;node140529613484912</title>
<path fill="none" stroke="#6b6b6b" stroke-width="0.5" d="M271.5,-182.11C271.5,-198.68 271.5,-233.32 271.5,-247.38"/>
<polygon fill="#6b6b6b" stroke="#6b6b6b" stroke-width="0.5" points="272.55,-182.05 271.5,-179.05 270.45,-182.05 272.55,-182.05"/>
</g>
<!-- node140529613485200&#45;&gt;node140529613485152 -->
<g id="edge46" class="edge">
<title>node140529613485200&#45;&gt;node140529613485152</title>
<path fill="none" stroke="#6b6b6b" stroke-width="0.5" d="M286.41,-180.55C300.23,-187.56 320.55,-197.86 333.39,-204.37"/>
<polygon fill="#6b6b6b" stroke="#6b6b6b" stroke-width="0.5" points="286.54,-179.44 283.39,-179.03 285.59,-181.32 286.54,-179.44"/>
</g>
<!-- node140529613485248 -->
<g id="node39" class="node">
<title>node140529613485248</title>
<polygon fill="#cfe2d4" stroke="black" stroke-width="0" points="114.5,-64 94.5,-64 94.5,-43 114.5,-43 114.5,-64"/>
<text text-anchor="start" x="101" y="-55.4" font-family="Consolas" font-size="12.00" fill="#444443">+</text>
<text text-anchor="start" x="94.5" y="-45.8" font-family="Arial" font-size="9.00" fill="#444443">2kx1</text>
</g>
<!-- node140529613485248&#45;&gt;node140529613484816 -->
<g id="edge47" class="edge">
<title>node140529613485248&#45;&gt;node140529613484816</title>
<path fill="none" stroke="#6b6b6b" stroke-width="0.5" d="M104.5,-67.21C104.5,-73.19 104.5,-80.21 104.5,-85.76"/>
<polygon fill="#6b6b6b" stroke="#6b6b6b" stroke-width="0.5" points="105.55,-67.01 104.5,-64.01 103.45,-67.01 105.55,-67.01"/>
</g>
<!-- node140529613485248&#45;&gt;node140529613485200 -->
<g id="edge48" class="edge">
<title>node140529613485248&#45;&gt;node140529613485200</title>
<path fill="none" stroke="#6b6b6b" stroke-width="0.5" d="M117.31,-63.44C149.84,-86.13 234.99,-145.53 262.67,-164.84"/>
<polygon fill="#6b6b6b" stroke="#6b6b6b" stroke-width="0.5" points="117.76,-62.47 114.7,-61.61 116.55,-64.19 117.76,-62.47"/>
</g>
<!-- node140529613485296 -->
<g id="node40" class="node">
<title>node140529613485296</title>
<polygon fill="#cfe2d4" stroke="black" stroke-width="0" points="59.5,-21 39.5,-21 39.5,0 59.5,0 59.5,-21"/>
<text text-anchor="start" x="46" y="-12.4" font-family="Consolas" font-size="12.00" fill="#444443">=</text>
<text text-anchor="start" x="39.5" y="-2.8" font-family="Arial" font-size="9.00" fill="#444443">2kx1</text>
</g>
<!-- node140529613485296&#45;&gt;leaf140529612873584 -->
<g id="edge49" class="edge">
<title>node140529613485296&#45;&gt;leaf140529612873584</title>
<path fill="none" stroke="#6b6b6b" stroke-width="0.5" d="M48,-24.43C46.22,-40.91 43.5,-70.28 43.5,-95.5 43.5,-95.5 43.5,-95.5 43.5,-212.5 43.5,-248.71 24.73,-253.7 10.5,-287 9.35,-289.7 8.12,-292.66 7.02,-295.33"/>
<polygon fill="#6b6b6b" stroke="#6b6b6b" stroke-width="0.5" points="49.06,-24.41 48.34,-21.31 46.97,-24.18 49.06,-24.41"/>
</g>
<!-- node140529613485296&#45;&gt;node140529613485248 -->
<g id="edge50" class="edge">
<title>node140529613485296&#45;&gt;node140529613485248</title>
<path fill="none" stroke="#6b6b6b" stroke-width="0.5" d="M62,-20.82C71.83,-28.15 85.35,-38.22 94.48,-45.03"/>
<polygon fill="#6b6b6b" stroke="#6b6b6b" stroke-width="0.5" points="62.62,-19.97 59.59,-19.02 61.37,-21.65 62.62,-19.97"/>
</g>
</g>
</svg>
