<?xml version="1.0" encoding="utf-8" standalone="no"?>
<!DOCTYPE svg PUBLIC "-//W3C//DTD SVG 1.1//EN"
  "http://www.w3.org/Graphics/SVG/1.1/DTD/svg11.dtd">
<!-- Created with matplotlib (https://matplotlib.org/) -->
<svg height="52.534784pt" version="1.1" viewBox="0 0 169.804969 52.534784" width="169.804969pt" xmlns="http://www.w3.org/2000/svg" xmlns:xlink="http://www.w3.org/1999/xlink">
 <metadata>
  <rdf:RDF xmlns:cc="http://creativecommons.org/ns#" xmlns:dc="http://purl.org/dc/elements/1.1/" xmlns:rdf="http://www.w3.org/1999/02/22-rdf-syntax-ns#">
   <cc:Work>
    <dc:type rdf:resource="http://purl.org/dc/dcmitype/StillImage"/>
    <dc:date>2021-12-11T13:11:04.999774</dc:date>
    <dc:format>image/svg+xml</dc:format>
    <dc:creator>
     <cc:Agent>
      <dc:title>Matplotlib v3.3.4, https://matplotlib.org/</dc:title>
     </cc:Agent>
    </dc:creator>
   </cc:Work>
  </rdf:RDF>
 </metadata>
 <defs>
  <style type="text/css">*{stroke-linecap:butt;stroke-linejoin:round;}</style>
 </defs>
 <g id="figure_1">
  <g id="patch_1">
   <path d="M 0 52.534784 
L 169.804969 52.534784 
L 169.804969 0 
L 0 0 
z
" style="fill:none;"/>
  </g>
  <g id="axes_1">
   <g id="patch_2">
    <path clip-path="url(#pec59a31ef5)" d="M 40.99905 44.774066 
L 63.84915 44.774066 
L 63.84915 22.513646 
L 40.99905 22.513646 
z
" style="fill:#a8e1b0;fill-opacity:0.75;stroke:#808080;stroke-linejoin:miter;stroke-width:0.7;"/>
   </g>
   <g id="patch_3">
    <path clip-path="url(#pec59a31ef5)" d="M 105.78285 44.774066 
L 128.63295 44.774066 
L 128.63295 22.513646 
L 105.78285 22.513646 
z
" style="fill:#a8e1b0;fill-opacity:0.75;stroke:#808080;stroke-linejoin:miter;stroke-width:0.7;"/>
   </g>
   <g id="line2d_1">
    <path clip-path="url(#pec59a31ef5)" d="M 48.50694 12.786403 
L 56.34126 12.786403 
" style="fill:none;stroke:#c2c2c2;stroke-linecap:square;stroke-width:0.5;"/>
   </g>
   <g id="line2d_2">
    <path clip-path="url(#pec59a31ef5)" d="M 106.76214 12.786403 
L 127.65366 12.786403 
" style="fill:none;stroke:#c2c2c2;stroke-linecap:square;stroke-width:0.5;"/>
   </g>
   <g id="text_1">
    <!-- Y -->
    <g style="fill:#b4b4b4;" transform="translate(6.975 9.045156)scale(0.13 -0.13)">
     <defs>
      <path d="M 54.984375 63.8125 
L 31.890625 22.796875 
L 31.890625 0 
L 23.09375 0 
L 23.09375 23 
L 0 63.8125 
L 10.5 63.8125 
L 23.1875 40.484375 
L 27.875 31.109375 
L 32.171875 39.59375 
L 45.015625 63.8125 
z
" id="Consolas-89"/>
     </defs>
     <use xlink:href="#Consolas-89"/>
    </g>
   </g>
   <g id="text_2">
    <!--   -->
    <g style="fill:#b4b4b4;" transform="translate(13.5036 9.045156)scale(0.13 -0.13)">
     <defs>
      <path id="Consolas-32"/>
     </defs>
     <use xlink:href="#Consolas-32"/>
    </g>
   </g>
   <g id="text_3">
    <!-- = -->
    <g style="fill:#b4b4b4;" transform="translate(20.0322 9.045156)scale(0.13 -0.13)">
     <defs>
      <path d="M 48.484375 31.546875 
L 6.5 31.546875 
L 6.5 38.71875 
L 48.484375 38.71875 
z
M 48.484375 14.546875 
L 6.5 14.546875 
L 6.5 21.734375 
L 48.484375 21.734375 
z
" id="Consolas-61"/>
     </defs>
     <use xlink:href="#Consolas-61"/>
    </g>
   </g>
   <g id="text_4">
    <!--   -->
    <g style="fill:#b4b4b4;" transform="translate(26.5608 9.045156)scale(0.13 -0.13)">
     <use xlink:href="#Consolas-32"/>
    </g>
   </g>
   <g id="text_5">
    <!-- W -->
    <g style="fill:#444443;" transform="translate(49.1598 9.045156)scale(0.13 -0.13)">
     <defs>
      <path d="M 52.78125 63.8125 
L 48.484375 0 
L 37.203125 0 
L 29.296875 22.703125 
L 27.09375 29.984375 
L 24.8125 22.125 
L 17.484375 0 
L 6.59375 0 
L 2.203125 63.8125 
L 10.40625 63.8125 
L 12.890625 20.40625 
L 13.625 8.5 
L 16.703125 18.609375 
L 24.421875 42.28125 
L 30.421875 42.28125 
L 39.3125 16.890625 
L 42.28125 8.5 
L 42.484375 17.28125 
L 45.015625 63.8125 
z
" id="Consolas-87"/>
     </defs>
     <use xlink:href="#Consolas-87"/>
    </g>
   </g>
   <g id="text_6">
    <!--   -->
    <g style="fill:#b4b4b4;" transform="translate(71.7588 9.045156)scale(0.13 -0.13)">
     <use xlink:href="#Consolas-32"/>
    </g>
   </g>
   <g id="text_7">
    <!-- @ -->
    <g style="fill:#a40227;" transform="translate(78.2874 9.045156)scale(0.13 -0.13)">
     <defs>
      <path d="M 38.09375 19.921875 
Q 37.640625 16.796875 37.59375 14.75 
Q 37.546875 12.703125 37.859375 11.53125 
Q 38.1875 10.359375 38.859375 9.890625 
Q 39.546875 9.421875 40.578125 9.421875 
Q 41.9375 9.421875 43.15625 10.859375 
Q 44.390625 12.3125 45.34375 15.3125 
Q 46.296875 18.3125 46.84375 22.890625 
Q 47.40625 27.484375 47.40625 33.796875 
Q 47.40625 40.828125 46.53125 46.34375 
Q 45.65625 51.859375 43.75 55.71875 
Q 41.84375 59.578125 38.796875 61.59375 
Q 35.75 63.625 31.390625 63.625 
Q 28.078125 63.625 24.96875 61.9375 
Q 21.875 60.25 19.203125 57.203125 
Q 16.546875 54.15625 14.375 49.875 
Q 12.203125 45.609375 10.65625 40.421875 
Q 9.125 35.25 8.265625 29.296875 
Q 7.421875 23.34375 7.421875 16.890625 
Q 7.421875 1.171875 12.15625 -6.5625 
Q 16.890625 -14.3125 25.484375 -14.3125 
Q 29.828125 -14.3125 33.59375 -13.3125 
Q 37.359375 -12.3125 41.40625 -10.296875 
L 41.40625 -16.609375 
Q 37.40625 -18.453125 33.390625 -19.375 
Q 29.390625 -20.3125 25 -20.3125 
Q 12.546875 -20.3125 6.5625 -10.984375 
Q 0.59375 -1.65625 0.484375 16.796875 
Q 0.4375 24.171875 1.453125 30.9375 
Q 2.484375 37.703125 4.40625 43.5625 
Q 6.34375 49.421875 9.09375 54.21875 
Q 11.859375 59.03125 15.34375 62.421875 
Q 18.84375 65.828125 22.9375 67.703125 
Q 27.046875 69.578125 31.6875 69.578125 
Q 37.5 69.578125 41.765625 67.203125 
Q 46.046875 64.84375 48.828125 60.375 
Q 51.609375 55.90625 52.953125 49.40625 
Q 54.296875 42.921875 54.296875 34.625 
Q 54.25 26.21875 53.203125 20.234375 
Q 52.15625 14.265625 50.25 10.453125 
Q 48.34375 6.640625 45.625 4.859375 
Q 42.921875 3.078125 39.59375 3.078125 
Q 35.796875 3.078125 33.9375 5.03125 
Q 32.078125 6.984375 32.078125 10.296875 
Q 30.21875 6.546875 28.0625 4.8125 
Q 25.921875 3.078125 22.90625 3.078125 
Q 18.3125 3.078125 16.015625 6.515625 
Q 13.71875 9.96875 13.71875 17.390625 
Q 13.71875 20.0625 14.03125 23.140625 
Q 14.359375 26.21875 15.109375 29.3125 
Q 15.875 32.421875 17.09375 35.28125 
Q 18.3125 38.140625 20.09375 40.3125 
Q 21.875 42.484375 24.3125 43.796875 
Q 26.765625 45.125 29.890625 45.125 
Q 31.734375 45.125 33.34375 44.671875 
Q 34.96875 44.234375 35.6875 43.796875 
L 42 45.3125 
z
M 33.109375 37.3125 
Q 32.671875 37.890625 31.765625 38.34375 
Q 30.859375 38.8125 29.5 38.8125 
Q 28.03125 38.8125 26.859375 37.78125 
Q 25.6875 36.765625 24.78125 35.046875 
Q 23.875 33.34375 23.265625 31.171875 
Q 22.65625 29 22.234375 26.703125 
Q 21.828125 24.421875 21.65625 22.1875 
Q 21.484375 19.96875 21.484375 18.21875 
Q 21.484375 13.53125 22.0625 11.46875 
Q 22.65625 9.421875 24.3125 9.421875 
Q 24.90625 9.421875 25.484375 9.65625 
Q 26.078125 9.90625 26.734375 10.609375 
Q 27.390625 11.328125 28.171875 12.59375 
Q 28.953125 13.875 29.890625 15.921875 
z
" id="Consolas-64"/>
     </defs>
     <use xlink:href="#Consolas-64"/>
    </g>
   </g>
   <g id="text_8">
    <!--   -->
    <g style="fill:#b4b4b4;" transform="translate(84.816 9.045156)scale(0.13 -0.13)">
     <use xlink:href="#Consolas-32"/>
    </g>
   </g>
   <g id="text_9">
    <!-- X -->
    <g style="fill:#444443;" transform="translate(107.415 9.045156)scale(0.13 -0.13)">
     <defs>
      <path d="M 53.8125 0 
L 42.828125 0 
L 27.296875 25.78125 
L 11.71875 0 
L 0.875 0 
L 22.125 32.625 
L 2.59375 63.8125 
L 12.890625 63.8125 
L 27.484375 39.796875 
L 42.1875 63.8125 
L 52.203125 63.8125 
L 32.625 33.015625 
z
" id="Consolas-88"/>
     </defs>
     <use xlink:href="#Consolas-88"/>
    </g>
   </g>
   <g id="text_10">
    <!-- . -->
    <g style="fill:#444443;" transform="translate(113.9436 9.045156)scale(0.13 -0.13)">
     <defs>
      <path d="M 27.09375 15.375 
Q 28.765625 15.375 30.25 14.734375 
Q 31.734375 14.109375 32.828125 12.984375 
Q 33.9375 11.859375 34.5625 10.375 
Q 35.203125 8.890625 35.203125 7.171875 
Q 35.203125 5.515625 34.5625 4.046875 
Q 33.9375 2.59375 32.828125 1.484375 
Q 31.734375 0.390625 30.25 -0.234375 
Q 28.765625 -0.875 27.09375 -0.875 
Q 25.390625 -0.875 23.921875 -0.234375 
Q 22.46875 0.390625 21.359375 1.484375 
Q 20.265625 2.59375 19.625 4.046875 
Q 19 5.515625 19 7.171875 
Q 19 8.890625 19.625 10.375 
Q 20.265625 11.859375 21.359375 12.984375 
Q 22.46875 14.109375 23.921875 14.734375 
Q 25.390625 15.375 27.09375 15.375 
z
" id="Consolas-46"/>
     </defs>
     <use xlink:href="#Consolas-46"/>
    </g>
   </g>
   <g id="text_11">
    <!-- T -->
    <g style="fill:#444443;" transform="translate(120.4722 9.045156)scale(0.13 -0.13)">
     <defs>
      <path d="M 50.78125 56.390625 
L 31.890625 56.390625 
L 31.890625 0 
L 23.09375 0 
L 23.09375 56.390625 
L 4.203125 56.390625 
L 4.203125 63.8125 
L 50.78125 63.8125 
z
" id="Consolas-84"/>
     </defs>
     <use xlink:href="#Consolas-84"/>
    </g>
   </g>
   <g id="text_12">
    <!--   -->
    <g style="fill:#b4b4b4;" transform="translate(143.0712 9.045156)scale(0.13 -0.13)">
     <use xlink:href="#Consolas-32"/>
    </g>
   </g>
   <g id="text_13">
    <!-- + -->
    <g style="fill:#b4b4b4;" transform="translate(149.5998 9.045156)scale(0.13 -0.13)">
     <defs>
      <path d="M 50.875 22.90625 
L 31.6875 22.90625 
L 31.6875 2.984375 
L 23.296875 2.984375 
L 23.296875 22.90625 
L 4.109375 22.90625 
L 4.109375 30.328125 
L 23.296875 30.328125 
L 23.296875 50.09375 
L 31.6875 50.09375 
L 31.6875 30.328125 
L 50.875 30.328125 
z
" id="Consolas-43"/>
     </defs>
     <use xlink:href="#Consolas-43"/>
    </g>
   </g>
   <g id="text_14">
    <!--   -->
    <g style="fill:#b4b4b4;" transform="translate(156.1284 9.045156)scale(0.13 -0.13)">
     <use xlink:href="#Consolas-32"/>
    </g>
   </g>
   <g id="text_15">
    <!-- b -->
    <g style="fill:#b4b4b4;" transform="translate(162.657 9.045156)scale(0.13 -0.13)">
     <defs>
      <path d="M 49.703125 25.390625 
Q 49.703125 19.28125 48.015625 14.46875 
Q 46.34375 9.671875 43.234375 6.328125 
Q 40.140625 2.984375 35.6875 1.1875 
Q 31.25 -0.59375 25.6875 -0.59375 
Q 21.34375 -0.59375 16.796875 0.234375 
Q 12.25 1.078125 7.8125 2.875 
L 7.8125 69 
L 16.3125 69 
L 16.3125 50 
L 15.921875 40.921875 
Q 19.578125 45.84375 23.75 47.875 
Q 27.9375 49.90625 32.71875 49.90625 
Q 36.921875 49.90625 40.09375 48.140625 
Q 43.265625 46.390625 45.40625 43.1875 
Q 47.5625 39.984375 48.625 35.46875 
Q 49.703125 30.953125 49.703125 25.390625 
z
M 41.015625 25 
Q 41.015625 28.859375 40.453125 32.078125 
Q 39.890625 35.296875 38.671875 37.59375 
Q 37.453125 39.890625 35.546875 41.1875 
Q 33.640625 42.484375 31 42.484375 
Q 29.390625 42.484375 27.734375 41.96875 
Q 26.078125 41.453125 24.296875 40.25 
Q 22.515625 39.0625 20.53125 37.078125 
Q 18.5625 35.109375 16.3125 32.171875 
L 16.3125 8.40625 
Q 18.796875 7.421875 21.375 6.859375 
Q 23.96875 6.296875 26.3125 6.296875 
Q 29.25 6.296875 31.90625 7.21875 
Q 34.578125 8.15625 36.59375 10.328125 
Q 38.625 12.5 39.8125 16.078125 
Q 41.015625 19.671875 41.015625 25 
z
" id="Consolas-98"/>
     </defs>
     <use xlink:href="#Consolas-98"/>
    </g>
   </g>
   <g id="text_16">
    <!-- 764 -->
    <g transform="translate(39.2103 41.151121)rotate(-90)scale(0.09 -0.09)">
     <defs>
      <path d="M 4.734375 62.203125 
L 4.734375 70.65625 
L 51.078125 70.65625 
L 51.078125 63.8125 
Q 44.234375 56.546875 37.515625 44.484375 
Q 30.8125 32.421875 27.15625 19.671875 
Q 24.515625 10.6875 23.78125 0 
L 14.75 0 
Q 14.890625 8.453125 18.0625 20.40625 
Q 21.234375 32.375 27.171875 43.484375 
Q 33.109375 54.59375 39.796875 62.203125 
z
" id="ArialMT-55"/>
      <path d="M 49.75 54.046875 
L 41.015625 53.375 
Q 39.84375 58.546875 37.703125 60.890625 
Q 34.125 64.65625 28.90625 64.65625 
Q 24.703125 64.65625 21.53125 62.3125 
Q 17.390625 59.28125 14.984375 53.46875 
Q 12.59375 47.65625 12.5 36.921875 
Q 15.671875 41.75 20.265625 44.09375 
Q 24.859375 46.4375 29.890625 46.4375 
Q 38.671875 46.4375 44.84375 39.96875 
Q 51.03125 33.5 51.03125 23.25 
Q 51.03125 16.5 48.125 10.71875 
Q 45.21875 4.9375 40.140625 1.859375 
Q 35.0625 -1.21875 28.609375 -1.21875 
Q 17.625 -1.21875 10.6875 6.859375 
Q 3.765625 14.9375 3.765625 33.5 
Q 3.765625 54.25 11.421875 63.671875 
Q 18.109375 71.875 29.4375 71.875 
Q 37.890625 71.875 43.28125 67.140625 
Q 48.6875 62.40625 49.75 54.046875 
z
M 13.875 23.1875 
Q 13.875 18.65625 15.796875 14.5 
Q 17.71875 10.359375 21.1875 8.171875 
Q 24.65625 6 28.46875 6 
Q 34.03125 6 38.03125 10.484375 
Q 42.046875 14.984375 42.046875 22.703125 
Q 42.046875 30.125 38.078125 34.390625 
Q 34.125 38.671875 28.125 38.671875 
Q 22.171875 38.671875 18.015625 34.390625 
Q 13.875 30.125 13.875 23.1875 
z
" id="ArialMT-54"/>
      <path d="M 32.328125 0 
L 32.328125 17.140625 
L 1.265625 17.140625 
L 1.265625 25.203125 
L 33.9375 71.578125 
L 41.109375 71.578125 
L 41.109375 25.203125 
L 50.78125 25.203125 
L 50.78125 17.140625 
L 41.109375 17.140625 
L 41.109375 0 
z
M 32.328125 25.203125 
L 32.328125 57.46875 
L 9.90625 25.203125 
z
" id="ArialMT-52"/>
     </defs>
     <use xlink:href="#ArialMT-55"/>
     <use x="55.615234" xlink:href="#ArialMT-54"/>
     <use x="111.230469" xlink:href="#ArialMT-52"/>
    </g>
   </g>
   <g id="text_17">
    <!-- 100 -->
    <g transform="translate(44.916834 21.154646)scale(0.09 -0.09)">
     <defs>
      <path d="M 37.25 0 
L 28.46875 0 
L 28.46875 56 
Q 25.296875 52.984375 20.140625 49.953125 
Q 14.984375 46.921875 10.890625 45.40625 
L 10.890625 53.90625 
Q 18.265625 57.375 23.78125 62.296875 
Q 29.296875 67.234375 31.59375 71.875 
L 37.25 71.875 
z
" id="ArialMT-49"/>
      <path d="M 4.15625 35.296875 
Q 4.15625 48 6.765625 55.734375 
Q 9.375 63.484375 14.515625 67.671875 
Q 19.671875 71.875 27.484375 71.875 
Q 33.25 71.875 37.59375 69.546875 
Q 41.9375 67.234375 44.765625 62.859375 
Q 47.609375 58.5 49.21875 52.21875 
Q 50.828125 45.953125 50.828125 35.296875 
Q 50.828125 22.703125 48.234375 14.96875 
Q 45.65625 7.234375 40.5 3 
Q 35.359375 -1.21875 27.484375 -1.21875 
Q 17.140625 -1.21875 11.234375 6.203125 
Q 4.15625 15.140625 4.15625 35.296875 
z
M 13.1875 35.296875 
Q 13.1875 17.671875 17.3125 11.828125 
Q 21.4375 6 27.484375 6 
Q 33.546875 6 37.671875 11.859375 
Q 41.796875 17.71875 41.796875 35.296875 
Q 41.796875 52.984375 37.671875 58.78125 
Q 33.546875 64.59375 27.390625 64.59375 
Q 21.34375 64.59375 17.71875 59.46875 
Q 13.1875 52.9375 13.1875 35.296875 
z
" id="ArialMT-48"/>
     </defs>
     <use xlink:href="#ArialMT-49"/>
     <use x="55.615234" xlink:href="#ArialMT-48"/>
     <use x="111.230469" xlink:href="#ArialMT-48"/>
    </g>
   </g>
   <g id="text_18">
    <!-- &lt;${\mathit{float64}}$&gt; -->
    <g transform="translate(36.0091 51.143534)scale(0.07 -0.07)">
     <defs>
      <path d="M 5.46875 31.296875 
L 5.46875 39.5 
L 52.875 59.515625 
L 52.875 50.78125 
L 15.28125 35.359375 
L 52.875 19.78125 
L 52.875 11.03125 
z
" id="ArialMT-60"/>
      <path d="M 47.796875 75.984375 
L 46.390625 68.5 
L 37.796875 68.5 
Q 32.90625 68.5 30.6875 66.578125 
Q 28.46875 64.65625 27.390625 59.515625 
L 26.421875 54.6875 
L 41.21875 54.6875 
L 39.890625 47.703125 
L 25.09375 47.703125 
L 15.828125 0 
L 6.78125 0 
L 16.109375 47.703125 
L 7.515625 47.703125 
L 8.796875 54.6875 
L 17.390625 54.6875 
L 18.109375 58.5 
Q 19.96875 68.171875 24.625 72.078125 
Q 29.296875 75.984375 39.3125 75.984375 
z
" id="DejaVuSans-Oblique-102"/>
      <path d="M 18.3125 75.984375 
L 27.296875 75.984375 
L 12.5 0 
L 3.515625 0 
z
" id="DejaVuSans-Oblique-108"/>
      <path d="M 25.390625 -1.421875 
Q 15.765625 -1.421875 10.171875 4.515625 
Q 4.59375 10.453125 4.59375 20.703125 
Q 4.59375 26.65625 6.515625 32.828125 
Q 8.453125 39.015625 11.53125 43.21875 
Q 16.359375 49.75 22.3125 52.875 
Q 28.265625 56 35.796875 56 
Q 45.125 56 50.859375 50.1875 
Q 56.59375 44.390625 56.59375 35.015625 
Q 56.59375 28.515625 54.6875 22.0625 
Q 52.78125 15.625 49.703125 11.375 
Q 44.921875 4.828125 38.96875 1.703125 
Q 33.015625 -1.421875 25.390625 -1.421875 
z
M 13.921875 21 
Q 13.921875 13.578125 17.015625 9.890625 
Q 20.125 6.203125 26.421875 6.203125 
Q 35.453125 6.203125 41.375 14.078125 
Q 47.3125 21.96875 47.3125 34.078125 
Q 47.3125 41.15625 44.140625 44.765625 
Q 40.96875 48.390625 34.8125 48.390625 
Q 29.734375 48.390625 25.78125 46.015625 
Q 21.828125 43.65625 18.703125 38.8125 
Q 16.40625 35.203125 15.15625 30.5625 
Q 13.921875 25.921875 13.921875 21 
z
" id="DejaVuSans-Oblique-111"/>
      <path d="M 53.71875 31.203125 
L 47.609375 0 
L 38.625 0 
L 40.28125 8.296875 
Q 36.328125 3.421875 31.265625 1 
Q 26.21875 -1.421875 20.015625 -1.421875 
Q 13.03125 -1.421875 8.5625 2.84375 
Q 4.109375 7.125 4.109375 13.8125 
Q 4.109375 23.390625 11.75 28.953125 
Q 19.390625 34.515625 32.8125 34.515625 
L 45.3125 34.515625 
L 45.796875 36.921875 
Q 45.90625 37.3125 45.953125 37.765625 
Q 46 38.234375 46 39.203125 
Q 46 43.5625 42.453125 45.96875 
Q 38.921875 48.390625 32.515625 48.390625 
Q 28.125 48.390625 23.5 47.265625 
Q 18.890625 46.140625 14.015625 43.890625 
L 15.578125 52.203125 
Q 20.65625 54.109375 25.515625 55.046875 
Q 30.375 56 34.90625 56 
Q 44.578125 56 49.625 51.796875 
Q 54.6875 47.609375 54.6875 39.59375 
Q 54.6875 37.984375 54.4375 35.8125 
Q 54.203125 33.640625 53.71875 31.203125 
z
M 44 27.484375 
L 35.015625 27.484375 
Q 23.96875 27.484375 18.671875 24.53125 
Q 13.375 21.578125 13.375 15.375 
Q 13.375 11.078125 16.078125 8.640625 
Q 18.796875 6.203125 23.578125 6.203125 
Q 30.90625 6.203125 36.375 11.453125 
Q 41.84375 16.703125 43.609375 25.484375 
z
" id="DejaVuSans-Oblique-97"/>
      <path d="M 42.28125 54.6875 
L 40.921875 47.703125 
L 23 47.703125 
L 17.1875 18.015625 
Q 16.890625 16.359375 16.75 15.234375 
Q 16.609375 14.109375 16.609375 13.484375 
Q 16.609375 10.359375 18.484375 8.9375 
Q 20.359375 7.515625 24.515625 7.515625 
L 33.59375 7.515625 
L 32.078125 0 
L 23.484375 0 
Q 15.484375 0 11.546875 3.125 
Q 7.625 6.25 7.625 12.59375 
Q 7.625 13.71875 7.765625 15.0625 
Q 7.90625 16.40625 8.203125 18.015625 
L 14.015625 47.703125 
L 6.390625 47.703125 
L 7.8125 54.6875 
L 15.28125 54.6875 
L 18.3125 70.21875 
L 27.296875 70.21875 
L 24.3125 54.6875 
z
" id="DejaVuSans-Oblique-116"/>
      <path d="M 33.015625 40.375 
Q 26.375 40.375 22.484375 35.828125 
Q 18.609375 31.296875 18.609375 23.390625 
Q 18.609375 15.53125 22.484375 10.953125 
Q 26.375 6.390625 33.015625 6.390625 
Q 39.65625 6.390625 43.53125 10.953125 
Q 47.40625 15.53125 47.40625 23.390625 
Q 47.40625 31.296875 43.53125 35.828125 
Q 39.65625 40.375 33.015625 40.375 
z
M 52.59375 71.296875 
L 52.59375 62.3125 
Q 48.875 64.0625 45.09375 64.984375 
Q 41.3125 65.921875 37.59375 65.921875 
Q 27.828125 65.921875 22.671875 59.328125 
Q 17.53125 52.734375 16.796875 39.40625 
Q 19.671875 43.65625 24.015625 45.921875 
Q 28.375 48.1875 33.59375 48.1875 
Q 44.578125 48.1875 50.953125 41.515625 
Q 57.328125 34.859375 57.328125 23.390625 
Q 57.328125 12.15625 50.6875 5.359375 
Q 44.046875 -1.421875 33.015625 -1.421875 
Q 20.359375 -1.421875 13.671875 8.265625 
Q 6.984375 17.96875 6.984375 36.375 
Q 6.984375 53.65625 15.1875 63.9375 
Q 23.390625 74.21875 37.203125 74.21875 
Q 40.921875 74.21875 44.703125 73.484375 
Q 48.484375 72.75 52.59375 71.296875 
z
" id="DejaVuSans-54"/>
      <path d="M 37.796875 64.3125 
L 12.890625 25.390625 
L 37.796875 25.390625 
z
M 35.203125 72.90625 
L 47.609375 72.90625 
L 47.609375 25.390625 
L 58.015625 25.390625 
L 58.015625 17.1875 
L 47.609375 17.1875 
L 47.609375 0 
L 37.796875 0 
L 37.796875 17.1875 
L 4.890625 17.1875 
L 4.890625 26.703125 
z
" id="DejaVuSans-52"/>
      <path d="M 52.875 31.296875 
L 5.46875 11.03125 
L 5.46875 19.78125 
L 43.015625 35.359375 
L 5.46875 50.78125 
L 5.46875 59.515625 
L 52.875 39.5 
z
" id="ArialMT-62"/>
     </defs>
     <use transform="translate(0 0.015625)" xlink:href="#ArialMT-60"/>
     <use transform="translate(58.398438 0.015625)" xlink:href="#DejaVuSans-Oblique-102"/>
     <use transform="translate(93.603516 0.015625)" xlink:href="#DejaVuSans-Oblique-108"/>
     <use transform="translate(121.386719 0.015625)" xlink:href="#DejaVuSans-Oblique-111"/>
     <use transform="translate(182.568359 0.015625)" xlink:href="#DejaVuSans-Oblique-97"/>
     <use transform="translate(243.847656 0.015625)" xlink:href="#DejaVuSans-Oblique-116"/>
     <use transform="translate(283.056641 0.015625)" xlink:href="#DejaVuSans-54"/>
     <use transform="translate(346.679688 0.015625)" xlink:href="#DejaVuSans-52"/>
     <use transform="translate(410.302734 0.015625)" xlink:href="#ArialMT-62"/>
    </g>
   </g>
   <g id="text_19">
    <!-- 764 -->
    <g transform="translate(103.9941 41.151121)rotate(-90)scale(0.09 -0.09)">
     <use xlink:href="#ArialMT-55"/>
     <use x="55.615234" xlink:href="#ArialMT-54"/>
     <use x="111.230469" xlink:href="#ArialMT-52"/>
    </g>
   </g>
   <g id="text_20">
    <!-- 200 -->
    <g transform="translate(109.700634 21.154646)scale(0.09 -0.09)">
     <defs>
      <path d="M 50.34375 8.453125 
L 50.34375 0 
L 3.03125 0 
Q 2.9375 3.171875 4.046875 6.109375 
Q 5.859375 10.9375 9.828125 15.625 
Q 13.8125 20.3125 21.34375 26.46875 
Q 33.015625 36.03125 37.109375 41.625 
Q 41.21875 47.21875 41.21875 52.203125 
Q 41.21875 57.421875 37.46875 61 
Q 33.734375 64.59375 27.734375 64.59375 
Q 21.390625 64.59375 17.578125 60.78125 
Q 13.765625 56.984375 13.71875 50.25 
L 4.6875 51.171875 
Q 5.609375 61.28125 11.65625 66.578125 
Q 17.71875 71.875 27.9375 71.875 
Q 38.234375 71.875 44.234375 66.15625 
Q 50.25 60.453125 50.25 52 
Q 50.25 47.703125 48.484375 43.546875 
Q 46.734375 39.40625 42.65625 34.8125 
Q 38.578125 30.21875 29.109375 22.21875 
Q 21.1875 15.578125 18.9375 13.203125 
Q 16.703125 10.84375 15.234375 8.453125 
z
" id="ArialMT-50"/>
     </defs>
     <use xlink:href="#ArialMT-50"/>
     <use x="55.615234" xlink:href="#ArialMT-48"/>
     <use x="111.230469" xlink:href="#ArialMT-48"/>
    </g>
   </g>
   <g id="text_21">
    <!-- &lt;${\mathit{float64}}$&gt; -->
    <g transform="translate(100.7929 51.143534)scale(0.07 -0.07)">
     <use transform="translate(0 0.015625)" xlink:href="#ArialMT-60"/>
     <use transform="translate(58.398438 0.015625)" xlink:href="#DejaVuSans-Oblique-102"/>
     <use transform="translate(93.603516 0.015625)" xlink:href="#DejaVuSans-Oblique-108"/>
     <use transform="translate(121.386719 0.015625)" xlink:href="#DejaVuSans-Oblique-111"/>
     <use transform="translate(182.568359 0.015625)" xlink:href="#DejaVuSans-Oblique-97"/>
     <use transform="translate(243.847656 0.015625)" xlink:href="#DejaVuSans-Oblique-116"/>
     <use transform="translate(283.056641 0.015625)" xlink:href="#DejaVuSans-54"/>
     <use transform="translate(346.679688 0.015625)" xlink:href="#DejaVuSans-52"/>
     <use transform="translate(410.302734 0.015625)" xlink:href="#ArialMT-62"/>
    </g>
   </g>
  </g>
 </g>
 <defs>
  <clipPath id="pec59a31ef5">
   <rect height="41.491069" width="169.1856" x="0" y="4.098396"/>
  </clipPath>
 </defs>
</svg>
