<?xml version="1.0" encoding="UTF-8" standalone="no"?>
<!DOCTYPE svg PUBLIC "-//W3C//DTD SVG 1.1//EN"
 "http://www.w3.org/Graphics/SVG/1.1/DTD/svg11.dtd">
<!-- Generated by graphviz version 2.44.1 (20200629.0846)
 -->
<!-- Title: G Pages: 1 -->
<svg width="148pt" height="74pt"
 viewBox="0.00 0.00 148.00 74.00" xmlns="http://www.w3.org/2000/svg" xmlns:xlink="http://www.w3.org/1999/xlink">
<g id="graph0" class="graph" transform="scale(1 1) rotate(0) translate(4 70)">
<title>G</title>
<polygon fill="white" stroke="transparent" points="-4,4 -4,-70 144,-70 144,4 -4,4"/>
<!-- leaf140728778297408 -->
<g id="node1" class="node">
<title>leaf140728778297408</title>
<polygon fill="none" stroke="black" stroke-width="0" points="15,-66 0,-66 0,0 15,0 15,-66"/>
<text text-anchor="start" x="-16" y="-55.8" font-family="Times,serif" font-size="14.00"> &#160;&#160;&#160;</text>
<text text-anchor="start" x="0" y="-55.8" font-family="Consolas" font-size="9.00" fill="#444443">2x1</text>
<text text-anchor="start" x="16" y="-55.8" font-family="Times,serif" font-size="14.00"> &#160;&#160;&#160;</text>
<polygon fill="#cfe2d4" stroke="transparent" points="0.5,-13 0.5,-53 15.5,-53 15.5,-13 0.5,-13"/>
<polygon fill="none" stroke="black" points="0.5,-13 0.5,-53 15.5,-53 15.5,-13 0.5,-13"/>
<text text-anchor="start" x="-11.5" y="-30.3" font-family="Times,serif" font-size="14.00"> &#160;&#160;&#160;</text>
<text text-anchor="start" x="4.5" y="-30.3" font-family="Consolas" font-size="12.00" fill="#444443">a</text>
<text text-anchor="start" x="11.5" y="-30.3" font-family="Times,serif" font-size="14.00"> &#160;&#160;&#160;</text>
</g>
<!-- leaf140728778297504 -->
<g id="node2" class="node">
<title>leaf140728778297504</title>
<polygon fill="none" stroke="black" stroke-width="0" points="34.5,-51 16.5,-51 16.5,-15 34.5,-15 34.5,-51"/>
<text text-anchor="start" x="22" y="-29.9" font-family="Consolas" font-size="12.00" fill="#444443">=</text>
</g>
<!-- leaf140728778297408&#45;&gt;leaf140728778297504 -->
<!-- leaf140728778299904 -->
<g id="node3" class="node">
<title>leaf140728778299904</title>
<polygon fill="none" stroke="black" stroke-width="0" points="69.5,-51 35.5,-51 35.5,-15 69.5,-15 69.5,-51"/>
<text text-anchor="start" x="35.5" y="-29.9" font-family="Consolas" font-size="12.00" fill="#444443">torch</text>
</g>
<!-- leaf140728778297504&#45;&gt;leaf140728778299904 -->
<!-- leaf140728778300000 -->
<g id="node4" class="node">
<title>leaf140728778300000</title>
<polygon fill="none" stroke="black" stroke-width="0" points="78,-51 71,-51 71,-15 78,-15 78,-51"/>
<text text-anchor="start" x="71" y="-29.9" font-family="Consolas" font-size="12.00" fill="#444443">.</text>
</g>
<!-- leaf140728778299904&#45;&gt;leaf140728778300000 -->
<!-- leaf140728778300048 -->
<g id="node5" class="node">
<title>leaf140728778300048</title>
<polygon fill="none" stroke="black" stroke-width="0" points="107.5,-51 79.5,-51 79.5,-15 107.5,-15 107.5,-51"/>
<text text-anchor="start" x="79.5" y="-29.9" font-family="Consolas" font-size="12.00" fill="#444443">relu</text>
</g>
<!-- leaf140728778300000&#45;&gt;leaf140728778300048 -->
<!-- leaf140728778300144 -->
<g id="node6" class="node">
<title>leaf140728778300144</title>
<polygon fill="none" stroke="black" stroke-width="0" points="116,-51 109,-51 109,-15 116,-15 116,-51"/>
<text text-anchor="start" x="109" y="-29.9" font-family="Consolas" font-size="12.00" fill="#444443">(</text>
</g>
<!-- leaf140728778300048&#45;&gt;leaf140728778300144 -->
<!-- leaf140728778300192 -->
<g id="node7" class="node">
<title>leaf140728778300192</title>
<polygon fill="none" stroke="black" stroke-width="0" points="132,-66 117,-66 117,0 132,0 132,-66"/>
<text text-anchor="start" x="101" y="-55.8" font-family="Times,serif" font-size="14.00"> &#160;&#160;&#160;</text>
<text text-anchor="start" x="117" y="-55.8" font-family="Consolas" font-size="9.00" fill="#444443">2x1</text>
<text text-anchor="start" x="133" y="-55.8" font-family="Times,serif" font-size="14.00"> &#160;&#160;&#160;</text>
<polygon fill="#cfe2d4" stroke="transparent" points="117.5,-13 117.5,-53 132.5,-53 132.5,-13 117.5,-13"/>
<polygon fill="none" stroke="black" points="117.5,-13 117.5,-53 132.5,-53 132.5,-13 117.5,-13"/>
<text text-anchor="start" x="105.5" y="-30.3" font-family="Times,serif" font-size="14.00"> &#160;&#160;&#160;</text>
<text text-anchor="start" x="121.5" y="-30.3" font-family="Consolas" font-size="12.00" fill="#444443">x</text>
<text text-anchor="start" x="128.5" y="-30.3" font-family="Times,serif" font-size="14.00"> &#160;&#160;&#160;</text>
</g>
<!-- leaf140728778300144&#45;&gt;leaf140728778300192 -->
<!-- leaf140728778300288 -->
<g id="node8" class="node">
<title>leaf140728778300288</title>
<polygon fill="none" stroke="black" stroke-width="0" points="140,-51 133,-51 133,-15 140,-15 140,-51"/>
<text text-anchor="start" x="133" y="-29.9" font-family="Consolas" font-size="12.00" fill="#444443">)</text>
</g>
<!-- leaf140728778300192&#45;&gt;leaf140728778300288 -->
</g>
</svg>
