<?xml version="1.0" encoding="UTF-8" standalone="no"?>
<!DOCTYPE svg PUBLIC "-//W3C//DTD SVG 1.1//EN"
 "http://www.w3.org/Graphics/SVG/1.1/DTD/svg11.dtd">
<!-- Generated by graphviz version 2.44.1 (20200629.0846)
 -->
<!-- Title: G Pages: 1 -->
<svg width="275pt" height="94pt"
 viewBox="0.00 0.00 275.00 94.00" xmlns="http://www.w3.org/2000/svg" xmlns:xlink="http://www.w3.org/1999/xlink">
<g id="graph0" class="graph" transform="scale(1 1) rotate(0) translate(4 90)">
<title>G</title>
<polygon fill="white" stroke="transparent" points="-4,4 -4,-90 271,-90 271,4 -4,4"/>
<!-- leaf140273375910448 -->
<g id="node1" class="node">
<title>leaf140273375910448</title>
<polygon fill="none" stroke="black" stroke-width="0" points="15,-86 0,-86 0,0 15,0 15,-86"/>
<text text-anchor="start" x="-16" y="-75.8" font-family="Times,serif" font-size="14.00"> &#160;&#160;&#160;</text>
<text text-anchor="start" x="0" y="-75.8" font-family="Consolas" font-size="9.00" fill="#444443">3x1</text>
<text text-anchor="start" x="16" y="-75.8" font-family="Times,serif" font-size="14.00"> &#160;&#160;&#160;</text>
<polygon fill="#cfe2d4" stroke="transparent" points="0.5,-13 0.5,-73 15.5,-73 15.5,-13 0.5,-13"/>
<polygon fill="none" stroke="black" points="0.5,-13 0.5,-73 15.5,-73 15.5,-13 0.5,-13"/>
<text text-anchor="start" x="-11.5" y="-40.3" font-family="Times,serif" font-size="14.00"> &#160;&#160;&#160;</text>
<text text-anchor="start" x="4.5" y="-40.3" font-family="Consolas" font-size="12.00" fill="#444443">b</text>
<text text-anchor="start" x="11.5" y="-40.3" font-family="Times,serif" font-size="14.00"> &#160;&#160;&#160;</text>
</g>
<!-- leaf140273375910544 -->
<g id="node2" class="node">
<title>leaf140273375910544</title>
<polygon fill="none" stroke="black" stroke-width="0" points="34.5,-61 16.5,-61 16.5,-25 34.5,-25 34.5,-61"/>
<text text-anchor="start" x="22" y="-39.9" font-family="Consolas" font-size="12.00" fill="#444443">=</text>
</g>
<!-- leaf140273375910448&#45;&gt;leaf140273375910544 -->
<!-- leaf140273375909440 -->
<g id="node3" class="node">
<title>leaf140273375909440</title>
<polygon fill="none" stroke="black" stroke-width="0" points="75.5,-86 35.5,-86 35.5,0 75.5,0 75.5,-86"/>
<text text-anchor="start" x="31.5" y="-75.8" font-family="Times,serif" font-size="14.00"> &#160;&#160;&#160;</text>
<text text-anchor="start" x="47.5" y="-75.8" font-family="Consolas" font-size="9.00" fill="#444443">3x2</text>
<text text-anchor="start" x="63.5" y="-75.8" font-family="Times,serif" font-size="14.00"> &#160;&#160;&#160;</text>
<polygon fill="#cfe2d4" stroke="transparent" points="35.5,-13 35.5,-73 75.5,-73 75.5,-13 35.5,-13"/>
<polygon fill="none" stroke="black" points="35.5,-13 35.5,-73 75.5,-73 75.5,-13 35.5,-13"/>
<text text-anchor="start" x="36" y="-40.3" font-family="Times,serif" font-size="14.00"> &#160;&#160;&#160;</text>
<text text-anchor="start" x="52" y="-40.3" font-family="Consolas" font-size="12.00" fill="#444443">W</text>
<text text-anchor="start" x="59" y="-40.3" font-family="Times,serif" font-size="14.00"> &#160;&#160;&#160;</text>
</g>
<!-- leaf140273375910544&#45;&gt;leaf140273375909440 -->
<!-- leaf140273375909920 -->
<g id="node4" class="node">
<title>leaf140273375909920</title>
<polygon fill="none" stroke="black" stroke-width="0" points="90.5,-61 76.5,-61 76.5,-25 90.5,-25 90.5,-61"/>
<text text-anchor="start" x="80" y="-39.9" font-family="Consolas" font-size="12.00" fill="#444443">@</text>
</g>
<!-- leaf140273375909440&#45;&gt;leaf140273375909920 -->
<!-- leaf140273375910112 -->
<g id="node5" class="node">
<title>leaf140273375910112</title>
<polygon fill="none" stroke="black" stroke-width="0" points="107,-76 92,-76 92,-10 107,-10 107,-76"/>
<text text-anchor="start" x="76" y="-65.8" font-family="Times,serif" font-size="14.00"> &#160;&#160;&#160;</text>
<text text-anchor="start" x="92" y="-65.8" font-family="Consolas" font-size="9.00" fill="#444443">2x1</text>
<text text-anchor="start" x="108" y="-65.8" font-family="Times,serif" font-size="14.00"> &#160;&#160;&#160;</text>
<polygon fill="#cfe2d4" stroke="transparent" points="92.5,-23 92.5,-63 107.5,-63 107.5,-23 92.5,-23"/>
<polygon fill="none" stroke="black" points="92.5,-23 92.5,-63 107.5,-63 107.5,-23 92.5,-23"/>
<text text-anchor="start" x="80.5" y="-40.3" font-family="Times,serif" font-size="14.00"> &#160;&#160;&#160;</text>
<text text-anchor="start" x="96.5" y="-40.3" font-family="Consolas" font-size="12.00" fill="#444443">b</text>
<text text-anchor="start" x="103.5" y="-40.3" font-family="Times,serif" font-size="14.00"> &#160;&#160;&#160;</text>
</g>
<!-- leaf140273375909920&#45;&gt;leaf140273375910112 -->
<!-- leaf140273375910688 -->
<g id="node6" class="node">
<title>leaf140273375910688</title>
<polygon fill="none" stroke="black" stroke-width="0" points="137,-61 108,-61 108,-25 137,-25 137,-61"/>
<text text-anchor="start" x="119" y="-39.9" font-family="Consolas" font-size="12.00" fill="#444443">+</text>
</g>
<!-- leaf140273375910112&#45;&gt;leaf140273375910688 -->
<!-- leaf140273375910736 -->
<g id="node7" class="node">
<title>leaf140273375910736</title>
<polygon fill="none" stroke="black" stroke-width="0" points="178.5,-63.5 138.5,-63.5 138.5,-22.5 178.5,-22.5 178.5,-63.5"/>
<text text-anchor="start" x="139.5" y="-52.8" font-family="Times,serif" font-size="14.00"> &#160;&#160;&#160;</text>
<text text-anchor="start" x="155.5" y="-52.8" font-family="Consolas" font-size="9.00" fill="#444443">2</text>
<text text-anchor="start" x="161.5" y="-52.8" font-family="Times,serif" font-size="14.00"> &#160;&#160;&#160;</text>
<polygon fill="#fefecd" stroke="transparent" points="138.5,-35 138.5,-50 178.5,-50 178.5,-35 138.5,-35"/>
<polygon fill="none" stroke="black" points="138.5,-35 138.5,-50 178.5,-50 178.5,-35 138.5,-35"/>
<text text-anchor="start" x="139" y="-38.8" font-family="Times,serif" font-size="14.00"> &#160;&#160;&#160;</text>
<text text-anchor="start" x="155" y="-38.8" font-family="Consolas" font-size="12.00" fill="#444443">h</text>
<text text-anchor="start" x="162" y="-38.8" font-family="Times,serif" font-size="14.00"> &#160;&#160;&#160;</text>
</g>
<!-- leaf140273375910688&#45;&gt;leaf140273375910736 -->
<!-- leaf140273375910832 -->
<g id="node8" class="node">
<title>leaf140273375910832</title>
<polygon fill="none" stroke="black" stroke-width="0" points="187,-61 180,-61 180,-25 187,-25 187,-61"/>
<text text-anchor="start" x="180" y="-39.9" font-family="Consolas" font-size="12.00" fill="#444443">.</text>
</g>
<!-- leaf140273375910736&#45;&gt;leaf140273375910832 -->
<!-- leaf140273375910928 -->
<g id="node9" class="node">
<title>leaf140273375910928</title>
<polygon fill="none" stroke="black" stroke-width="0" points="209,-61 188,-61 188,-25 209,-25 209,-61"/>
<text text-anchor="start" x="188" y="-39.9" font-family="Consolas" font-size="12.00" fill="#444443">dot</text>
</g>
<!-- leaf140273375910832&#45;&gt;leaf140273375910928 -->
<!-- leaf140273375911120 -->
<g id="node10" class="node">
<title>leaf140273375911120</title>
<polygon fill="none" stroke="black" stroke-width="0" points="217,-61 210,-61 210,-25 217,-25 217,-61"/>
<text text-anchor="start" x="210" y="-39.9" font-family="Consolas" font-size="12.00" fill="#444443">(</text>
</g>
<!-- leaf140273375910928&#45;&gt;leaf140273375911120 -->
<!-- leaf140273375911216 -->
<g id="node11" class="node">
<title>leaf140273375911216</title>
<polygon fill="none" stroke="black" stroke-width="0" points="258.5,-63.5 218.5,-63.5 218.5,-22.5 258.5,-22.5 258.5,-63.5"/>
<text text-anchor="start" x="219.5" y="-52.8" font-family="Times,serif" font-size="14.00"> &#160;&#160;&#160;</text>
<text text-anchor="start" x="235.5" y="-52.8" font-family="Consolas" font-size="9.00" fill="#444443">2</text>
<text text-anchor="start" x="241.5" y="-52.8" font-family="Times,serif" font-size="14.00"> &#160;&#160;&#160;</text>
<polygon fill="#fefecd" stroke="transparent" points="218.5,-35 218.5,-50 258.5,-50 258.5,-35 218.5,-35"/>
<polygon fill="none" stroke="black" points="218.5,-35 218.5,-50 258.5,-50 258.5,-35 218.5,-35"/>
<text text-anchor="start" x="219" y="-38.8" font-family="Times,serif" font-size="14.00"> &#160;&#160;&#160;</text>
<text text-anchor="start" x="235" y="-38.8" font-family="Consolas" font-size="12.00" fill="#444443">h</text>
<text text-anchor="start" x="242" y="-38.8" font-family="Times,serif" font-size="14.00"> &#160;&#160;&#160;</text>
</g>
<!-- leaf140273375911120&#45;&gt;leaf140273375911216 -->
<!-- leaf140273375911312 -->
<g id="node12" class="node">
<title>leaf140273375911312</title>
<polygon fill="none" stroke="black" stroke-width="0" points="267,-61 260,-61 260,-25 267,-25 267,-61"/>
<text text-anchor="start" x="260" y="-39.9" font-family="Consolas" font-size="12.00" fill="#444443">)</text>
</g>
<!-- leaf140273375911216&#45;&gt;leaf140273375911312 -->
</g>
</svg>
