<?xml version="1.0" encoding="UTF-8" standalone="no"?>
<!DOCTYPE svg PUBLIC "-//W3C//DTD SVG 1.1//EN"
 "http://www.w3.org/Graphics/SVG/1.1/DTD/svg11.dtd">
<!-- Generated by graphviz version 2.44.1 (20210629.0846)
 -->
<!-- Title: G Pages: 1 -->
<svg width="275pt" height="74pt"
 viewBox="0.00 0.00 275.00 74.00" xmlns="http://www.w3.org/2000/svg" xmlns:xlink="http://www.w3.org/1999/xlink">
<g id="graph0" class="graph" transform="scale(1 1) rotate(0) translate(4 70)">
<title>G</title>
<polygon fill="white" stroke="transparent" points="-4,4 -4,-70 271,-70 271,4 -4,4"/>
<!-- leaf140728778300816 -->
<g id="node1" class="node">
<title>leaf140728778300816</title>
<polygon fill="none" stroke="black" stroke-width="0" points="15,-66 0,-66 0,0 15,0 15,-66"/>
<text text-anchor="start" x="-16" y="-55.8" font-family="Times,serif" font-size="14.00"> &#160;&#160;&#160;</text>
<text text-anchor="start" x="0" y="-55.8" font-family="Consolas" font-size="9.00" fill="#444443">2x1</text>
<text text-anchor="start" x="16" y="-55.8" font-family="Times,serif" font-size="14.00"> &#160;&#160;&#160;</text>
<polygon fill="#cfe2d4" stroke="transparent" points="0.5,-13 0.5,-53 15.5,-53 15.5,-13 0.5,-13"/>
<polygon fill="none" stroke="black" points="0.5,-13 0.5,-53 15.5,-53 15.5,-13 0.5,-13"/>
<text text-anchor="start" x="-11.5" y="-30.3" font-family="Times,serif" font-size="14.00"> &#160;&#160;&#160;</text>
<text text-anchor="start" x="4.5" y="-30.3" font-family="Consolas" font-size="12.00" fill="#444443">b</text>
<text text-anchor="start" x="11.5" y="-30.3" font-family="Times,serif" font-size="14.00"> &#160;&#160;&#160;</text>
</g>
<!-- leaf140728778299856 -->
<g id="node2" class="node">
<title>leaf140728778299856</title>
<polygon fill="none" stroke="black" stroke-width="0" points="34.5,-51 16.5,-51 16.5,-15 34.5,-15 34.5,-51"/>
<text text-anchor="start" x="22" y="-29.9" font-family="Consolas" font-size="12.00" fill="#444443">=</text>
</g>
<!-- leaf140728778300816&#45;&gt;leaf140728778299856 -->
<!-- leaf140728778299376 -->
<g id="node3" class="node">
<title>leaf140728778299376</title>
<polygon fill="none" stroke="black" stroke-width="0" points="75.5,-66 35.5,-66 35.5,0 75.5,0 75.5,-66"/>
<text text-anchor="start" x="31.5" y="-55.8" font-family="Times,serif" font-size="14.00"> &#160;&#160;&#160;</text>
<text text-anchor="start" x="47.5" y="-55.8" font-family="Consolas" font-size="9.00" fill="#444443">2x2</text>
<text text-anchor="start" x="63.5" y="-55.8" font-family="Times,serif" font-size="14.00"> &#160;&#160;&#160;</text>
<polygon fill="#cfe2d4" stroke="transparent" points="35.5,-13 35.5,-53 75.5,-53 75.5,-13 35.5,-13"/>
<polygon fill="none" stroke="black" points="35.5,-13 35.5,-53 75.5,-53 75.5,-13 35.5,-13"/>
<text text-anchor="start" x="36" y="-30.3" font-family="Times,serif" font-size="14.00"> &#160;&#160;&#160;</text>
<text text-anchor="start" x="52" y="-30.3" font-family="Consolas" font-size="12.00" fill="#444443">W</text>
<text text-anchor="start" x="59" y="-30.3" font-family="Times,serif" font-size="14.00"> &#160;&#160;&#160;</text>
</g>
<!-- leaf140728778299856&#45;&gt;leaf140728778299376 -->
<!-- leaf140728778300384 -->
<g id="node4" class="node">
<title>leaf140728778300384</title>
<polygon fill="none" stroke="black" stroke-width="0" points="90.5,-51 76.5,-51 76.5,-15 90.5,-15 90.5,-51"/>
<text text-anchor="start" x="80" y="-29.9" font-family="Consolas" font-size="12.00" fill="#444443">@</text>
</g>
<!-- leaf140728778299376&#45;&gt;leaf140728778300384 -->
<!-- leaf140728778300960 -->
<g id="node5" class="node">
<title>leaf140728778300960</title>
<polygon fill="none" stroke="black" stroke-width="0" points="107,-66 92,-66 92,0 107,0 107,-66"/>
<text text-anchor="start" x="76" y="-55.8" font-family="Times,serif" font-size="14.00"> &#160;&#160;&#160;</text>
<text text-anchor="start" x="92" y="-55.8" font-family="Consolas" font-size="9.00" fill="#444443">2x1</text>
<text text-anchor="start" x="108" y="-55.8" font-family="Times,serif" font-size="14.00"> &#160;&#160;&#160;</text>
<polygon fill="#cfe2d4" stroke="transparent" points="92.5,-13 92.5,-53 107.5,-53 107.5,-13 92.5,-13"/>
<polygon fill="none" stroke="black" points="92.5,-13 92.5,-53 107.5,-53 107.5,-13 92.5,-13"/>
<text text-anchor="start" x="80.5" y="-30.3" font-family="Times,serif" font-size="14.00"> &#160;&#160;&#160;</text>
<text text-anchor="start" x="96.5" y="-30.3" font-family="Consolas" font-size="12.00" fill="#444443">b</text>
<text text-anchor="start" x="103.5" y="-30.3" font-family="Times,serif" font-size="14.00"> &#160;&#160;&#160;</text>
</g>
<!-- leaf140728778300384&#45;&gt;leaf140728778300960 -->
<!-- leaf140728778300912 -->
<g id="node6" class="node">
<title>leaf140728778300912</title>
<polygon fill="none" stroke="black" stroke-width="0" points="137,-51 108,-51 108,-15 137,-15 137,-51"/>
<text text-anchor="start" x="119" y="-29.9" font-family="Consolas" font-size="12.00" fill="#444443">+</text>
</g>
<!-- leaf140728778300960&#45;&gt;leaf140728778300912 -->
<!-- leaf140728778301008 -->
<g id="node7" class="node">
<title>leaf140728778301008</title>
<polygon fill="none" stroke="black" stroke-width="0" points="178.5,-53.5 138.5,-53.5 138.5,-12.5 178.5,-12.5 178.5,-53.5"/>
<text text-anchor="start" x="139.5" y="-42.8" font-family="Times,serif" font-size="14.00"> &#160;&#160;&#160;</text>
<text text-anchor="start" x="155.5" y="-42.8" font-family="Consolas" font-size="9.00" fill="#444443">2</text>
<text text-anchor="start" x="161.5" y="-42.8" font-family="Times,serif" font-size="14.00"> &#160;&#160;&#160;</text>
<polygon fill="#fefecd" stroke="transparent" points="138.5,-25 138.5,-40 178.5,-40 178.5,-25 138.5,-25"/>
<polygon fill="none" stroke="black" points="138.5,-25 138.5,-40 178.5,-40 178.5,-25 138.5,-25"/>
<text text-anchor="start" x="139" y="-28.8" font-family="Times,serif" font-size="14.00"> &#160;&#160;&#160;</text>
<text text-anchor="start" x="155" y="-28.8" font-family="Consolas" font-size="12.00" fill="#444443">h</text>
<text text-anchor="start" x="162" y="-28.8" font-family="Times,serif" font-size="14.00"> &#160;&#160;&#160;</text>
</g>
<!-- leaf140728778300912&#45;&gt;leaf140728778301008 -->
<!-- leaf140728778301104 -->
<g id="node8" class="node">
<title>leaf140728778301104</title>
<polygon fill="none" stroke="black" stroke-width="0" points="187,-51 180,-51 180,-15 187,-15 187,-51"/>
<text text-anchor="start" x="180" y="-29.9" font-family="Consolas" font-size="12.00" fill="#444443">.</text>
</g>
<!-- leaf140728778301008&#45;&gt;leaf140728778301104 -->
<!-- leaf140728778301296 -->
<g id="node9" class="node">
<title>leaf140728778301296</title>
<polygon fill="none" stroke="black" stroke-width="0" points="209,-51 188,-51 188,-15 209,-15 209,-51"/>
<text text-anchor="start" x="188" y="-29.9" font-family="Consolas" font-size="12.00" fill="#444443">dot</text>
</g>
<!-- leaf140728778301104&#45;&gt;leaf140728778301296 -->
<!-- leaf140728778301392 -->
<g id="node10" class="node">
<title>leaf140728778301392</title>
<polygon fill="none" stroke="black" stroke-width="0" points="217,-51 210,-51 210,-15 217,-15 217,-51"/>
<text text-anchor="start" x="210" y="-29.9" font-family="Consolas" font-size="12.00" fill="#444443">(</text>
</g>
<!-- leaf140728778301296&#45;&gt;leaf140728778301392 -->
<!-- leaf140728778298512 -->
<g id="node11" class="node">
<title>leaf140728778298512</title>
<polygon fill="none" stroke="black" stroke-width="0" points="258.5,-53.5 218.5,-53.5 218.5,-12.5 258.5,-12.5 258.5,-53.5"/>
<text text-anchor="start" x="219.5" y="-42.8" font-family="Times,serif" font-size="14.00"> &#160;&#160;&#160;</text>
<text text-anchor="start" x="235.5" y="-42.8" font-family="Consolas" font-size="9.00" fill="#444443">2</text>
<text text-anchor="start" x="241.5" y="-42.8" font-family="Times,serif" font-size="14.00"> &#160;&#160;&#160;</text>
<polygon fill="#fefecd" stroke="transparent" points="218.5,-25 218.5,-40 258.5,-40 258.5,-25 218.5,-25"/>
<polygon fill="none" stroke="black" points="218.5,-25 218.5,-40 258.5,-40 258.5,-25 218.5,-25"/>
<text text-anchor="start" x="219" y="-28.8" font-family="Times,serif" font-size="14.00"> &#160;&#160;&#160;</text>
<text text-anchor="start" x="235" y="-28.8" font-family="Consolas" font-size="12.00" fill="#444443">h</text>
<text text-anchor="start" x="242" y="-28.8" font-family="Times,serif" font-size="14.00"> &#160;&#160;&#160;</text>
</g>
<!-- leaf140728778301392&#45;&gt;leaf140728778298512 -->
<!-- leaf140728640009264 -->
<g id="node12" class="node">
<title>leaf140728640009264</title>
<polygon fill="none" stroke="black" stroke-width="0" points="267,-51 260,-51 260,-15 267,-15 267,-51"/>
<text text-anchor="start" x="260" y="-29.9" font-family="Consolas" font-size="12.00" fill="#444443">)</text>
</g>
<!-- leaf140728778298512&#45;&gt;leaf140728640009264 -->
</g>
</svg>
